<svg width="41" height="40" viewBox="0 0 41 40" fill="none" xmlns="http://www.w3.org/2000/svg">
<path fill-rule="evenodd" clip-rule="evenodd" d="M7.5474 2.82111L0.269575 18.1082C0.241881 18.165 0.233105 18.2293 0.24453 18.2915C0.255956 18.3537 0.286983 18.4106 0.333075 18.4539L19.9887 37.2888C20.0446 37.3423 20.1189 37.3722 20.1963 37.3722C20.2736 37.3722 20.348 37.3423 20.4038 37.2888L40.0595 18.4551C40.1056 18.4118 40.1366 18.3549 40.148 18.2927C40.1594 18.2304 40.1507 18.1662 40.123 18.1094L32.8452 2.82228C32.8217 2.77094 32.7839 2.72745 32.7363 2.697C32.6888 2.66656 32.6335 2.65045 32.577 2.6506H7.81786C7.76113 2.64989 7.70541 2.66561 7.65742 2.69587C7.60943 2.72612 7.57122 2.76962 7.5474 2.82111Z" fill="#50AF95"/>
<path fill-rule="evenodd" clip-rule="evenodd" d="M22.7218 19.678C22.5806 19.6886 21.8516 19.7321 20.2253 19.7321C18.9317 19.7321 18.0133 19.6933 17.6911 19.678C12.6923 19.4581 8.96103 18.5879 8.96103 17.5461C8.96103 16.5042 12.6923 15.6352 17.6911 15.4118V18.8114C18.018 18.8349 18.9541 18.8902 20.2476 18.8902C21.7998 18.8902 22.5771 18.8255 22.717 18.8126V15.4141C27.7053 15.6364 31.4283 16.5066 31.4283 17.5461C31.4283 18.5856 27.7065 19.4558 22.717 19.6769L22.7218 19.678ZM22.7218 15.0625V12.0204H29.6832V7.38135H10.7296V12.0204H17.6899V15.0613C12.0326 15.3212 7.77805 16.4419 7.77805 17.7848C7.77805 19.1277 12.0326 20.2472 17.6899 20.5082V30.2567H22.7206V20.5047C28.365 20.2448 32.6125 19.1253 32.6125 17.7836C32.6125 16.4419 28.3686 15.3224 22.7206 15.0613L22.7218 15.0625Z" fill="white"/>
</svg>
