<svg width="32" height="32" viewBox="0 0 32 32" fill="none" xmlns="http://www.w3.org/2000/svg">
<path fill-rule="evenodd" clip-rule="evenodd" d="M26.3068 25.77H6.17937C4.89937 25.77 3.875 24.746 3.875 23.466C3.875 21.898 4.51512 20.426 5.60312 19.306C6.72312 18.218 8.22712 17.5781 9.76312 17.5781H13.1231C14.6911 17.5781 16.1951 18.218 17.2831 19.306C17.3791 19.402 17.4754 19.4662 17.5394 19.5622C18.4034 18.9862 19.4269 18.6341 20.5469 18.6341H22.755C25.699 18.6341 28.0993 21.0341 28.0993 23.9781C28.0993 24.4581 27.907 24.906 27.555 25.226C27.235 25.578 26.7548 25.77 26.3068 25.77ZM16.3869 21.61C16.2269 21.322 16.0354 21.066 15.7794 20.81C15.0754 20.106 14.1151 19.7222 13.1231 19.7222H9.76312C8.77112 19.7222 7.81087 20.106 7.10687 20.81C6.40287 21.514 6.01937 22.474 6.01937 23.466C6.01937 23.562 6.08337 23.626 6.17937 23.626H16.7069C16.8029 23.626 16.8669 23.562 16.8669 23.466C16.8669 22.858 16.7392 22.25 16.4512 21.706C16.4192 21.674 16.4189 21.642 16.3869 21.61ZM19.0112 23.626H25.9231C25.7631 22.026 24.387 20.7781 22.755 20.7781H20.5469C19.8429 20.7781 19.1709 21.0021 18.6269 21.4181C18.8829 22.0581 19.0112 22.762 19.0112 23.466C19.0112 23.53 19.0112 23.594 19.0112 23.626ZM11.4594 6.28223C14.3074 6.28223 16.6112 8.58597 16.6112 11.466C16.6112 14.314 14.3074 16.6182 11.4594 16.6182C8.61137 16.6182 6.275 14.314 6.275 11.466C6.275 8.58597 8.61137 6.28223 11.4594 6.28223ZM11.4594 8.42597C9.76337 8.42597 8.41937 9.76997 8.41937 11.466C8.41937 13.13 9.76337 14.4741 11.4594 14.4741C13.1234 14.4741 14.4669 13.13 14.4669 11.466C14.4669 9.76997 13.1234 8.42597 11.4594 8.42597ZM21.6669 9.32222C24.0988 9.32222 26.115 11.306 26.115 13.77C26.115 16.202 24.0988 18.2181 21.6669 18.2181C19.2029 18.2181 17.2194 16.202 17.2194 13.77C17.2194 11.306 19.2029 9.32222 21.6669 9.32222ZM21.6669 11.4341C20.3869 11.4341 19.3312 12.49 19.3312 13.77C19.3312 15.05 20.3869 16.0741 21.6669 16.0741C22.9468 16.0741 23.9712 15.05 23.9712 13.77C23.9712 12.49 22.9468 11.4341 21.6669 11.4341Z" fill="#15FAA3"/>
</svg>
