<svg width="32" height="32" viewBox="0 0 32 32" fill="none" xmlns="http://www.w3.org/2000/svg">
<path fill-rule="evenodd" clip-rule="evenodd" d="M21.928 14.395H23.7517C24.5517 14.395 25.2882 14.7154 25.8642 15.2594C26.4082 15.8034 26.7279 16.5714 26.7279 17.3394V23.1631C26.7279 23.9311 26.4082 24.6991 25.8642 25.2431C25.2882 25.7871 24.5517 26.1068 23.7517 26.1068H8.19985C7.43185 26.1068 6.69585 25.7871 6.11985 25.2431C5.57585 24.6991 5.2561 23.9311 5.2561 23.1631V17.3394C5.2561 16.5714 5.57585 15.8034 6.11985 15.2594C6.69585 14.7154 7.43185 14.395 8.19985 14.395H10.088L13.1598 10.6194C12.7438 10.0434 12.488 9.30687 12.488 8.50687C12.488 6.49087 14.12 4.85938 16.168 4.85938C18.184 4.85938 19.8161 6.49087 19.8161 8.50687C19.8161 9.30687 19.5602 10.0432 19.1442 10.6512L21.928 14.395ZM12.8398 14.395H19.2717L17.448 11.9631C17.064 12.1231 16.616 12.1869 16.168 12.1869C15.688 12.1869 15.2402 12.0912 14.8242 11.9312L12.8398 14.395ZM24.5842 17.3394C24.5842 17.1154 24.488 16.9231 24.328 16.7631C24.2 16.6031 23.9757 16.5394 23.7517 16.5394H8.19985C8.00785 16.5394 7.78423 16.6031 7.62423 16.7631C7.49623 16.9231 7.39985 17.1154 7.39985 17.3394V23.1631C7.39985 23.3871 7.49623 23.5793 7.62423 23.7393C7.78423 23.8993 8.00785 23.9631 8.19985 23.9631H23.7517C23.9757 23.9631 24.2 23.8993 24.328 23.7393C24.488 23.5793 24.5842 23.3871 24.5842 23.1631V17.3394ZM16.168 7.00312C15.304 7.00312 14.6317 7.67487 14.6317 8.50687C14.6317 9.37087 15.304 10.0431 16.168 10.0431C17 10.0431 17.7042 9.37087 17.7042 8.50687C17.7042 7.67487 17 7.00312 16.168 7.00312Z" fill="#15FAA3"/>
</svg>
