<svg width="32" height="32" viewBox="0 0 32 32" fill="none" xmlns="http://www.w3.org/2000/svg">
<path fill-rule="evenodd" clip-rule="evenodd" d="M18.5196 6.68257L19.3516 7.7707C19.374 7.8027 19.4092 7.83457 19.4476 7.80257L20.8108 7.64257C22.8844 7.35457 24.6572 9.11445 24.3724 11.1944L24.1836 12.5385C24.1772 12.6025 24.1932 12.6344 24.2252 12.6344L25.3196 13.4666C26.9868 14.7466 26.9868 17.2426 25.3196 18.5226L24.2252 19.3545C24.1932 19.3545 24.1772 19.4187 24.1836 19.4507L24.3724 20.7945C24.6572 22.8745 22.8844 24.6665 20.8108 24.3785L19.4476 24.1866C19.4092 24.1866 19.374 24.1865 19.3516 24.2185L18.5196 25.3066C17.2556 26.9706 14.7468 26.9706 13.4828 25.3066L12.6539 24.2185C12.6283 24.1865 12.5932 24.1866 12.5548 24.1866L11.1916 24.3785C9.11796 24.6665 7.34516 22.8745 7.62996 20.7945L7.81875 19.4507C7.82515 19.4187 7.80915 19.3545 7.77715 19.3545L6.68277 18.5226C5.01557 17.2426 5.01557 14.7466 6.68277 13.4666L7.77715 12.6344C7.80915 12.6344 7.82515 12.6025 7.81875 12.5385L7.62996 11.1944C7.34516 9.11445 9.11796 7.35457 11.1916 7.64257L12.5548 7.80257C12.5932 7.83457 12.6283 7.8027 12.6539 7.7707L13.4828 6.68257C14.7468 5.01857 17.2556 5.01857 18.5196 6.68257ZM17.6716 9.0507L16.8396 7.96257C16.4204 7.38657 15.5852 7.38657 15.1628 7.96257L14.3308 9.0507C13.8476 9.6907 13.0604 10.0104 12.2668 9.91445L10.9068 9.72257C10.2156 9.62657 9.62357 10.2026 9.71957 10.9066L9.90516 12.2507C10.014 13.0507 9.68758 13.8507 9.05078 14.3307L7.95637 15.1626C7.39957 15.5786 7.39957 16.4106 7.95637 16.8266L9.05078 17.6585C9.68758 18.1385 10.014 18.9385 9.90516 19.7385L9.71957 21.0826C9.62357 21.7866 10.2156 22.3626 10.9068 22.2666L12.2668 22.1066C13.0604 21.9786 13.8476 22.2985 14.3308 22.9385L15.1628 24.0585C15.5852 24.6025 16.4204 24.6025 16.8396 24.0585L17.6716 22.9385C18.1548 22.2985 18.942 21.9786 19.7356 22.1066L21.0988 22.2666C21.79 22.3626 22.3788 21.7866 22.286 21.0826L22.0972 19.7385C21.9884 18.9385 22.3148 18.1385 22.9516 17.6585L24.0492 16.8266C24.6028 16.4106 24.6028 15.5786 24.0492 15.1626L22.9516 14.3307C22.3148 13.8507 21.9884 13.0507 22.0972 12.2507L22.286 10.9066C22.3788 10.2026 21.79 9.62657 21.0988 9.72257L19.7356 9.91445C18.942 10.0104 18.1548 9.6907 17.6716 9.0507ZM13.8956 14.9385C13.3132 14.9385 12.8428 14.4586 12.8428 13.8826C12.8428 13.3066 13.3132 12.8266 13.8956 12.8266C14.4748 12.8266 14.9484 13.3066 14.9484 13.8826C14.9484 14.4586 14.4748 14.9385 13.8956 14.9385ZM17.054 18.1066C17.054 17.5306 17.5276 17.0507 18.1068 17.0507C18.6892 17.0507 19.1628 17.5306 19.1628 18.1066C19.1628 18.6826 18.6892 19.1626 18.1068 19.1626C17.5276 19.1626 17.054 18.6826 17.054 18.1066ZM18.8524 14.6507L14.638 18.8426C14.2284 19.2586 13.5628 19.2586 13.15 18.8426C12.7372 18.4266 12.7372 17.7867 13.15 17.3707L17.3644 13.1466C17.774 12.7306 18.4428 12.7306 18.8524 13.1466C19.2652 13.5626 19.2652 14.2347 18.8524 14.6507Z" fill="#15FAA3"/>
</svg>
