<svg width="32" height="32" viewBox="0 0 32 32" fill="none" xmlns="http://www.w3.org/2000/svg">
<path fill-rule="evenodd" clip-rule="evenodd" d="M18.8175 17.6882V17.6853C18.6574 17.6969 17.8318 17.7464 15.9899 17.7464C14.5193 17.7464 13.4841 17.7028 13.1201 17.6853V17.6897C7.45901 17.4407 3.2336 16.4549 3.2336 15.2755C3.2336 14.0976 7.45901 13.1119 13.1201 12.8585V16.7083C13.4899 16.7345 14.5499 16.7971 16.0147 16.7971C17.7721 16.7971 18.653 16.7243 18.8175 16.7097V12.8614C24.4669 13.1133 28.6821 14.0991 28.6821 15.2755C28.6821 16.4549 24.4669 17.4378 18.8175 17.6882ZM18.8175 12.461V9.01606H26.7005V3.7627H5.2371V9.01606H13.1201V12.4596C6.71352 12.7537 1.89551 14.0234 1.89551 15.5435C1.89551 17.0636 6.71352 18.3318 13.1201 18.6273V29.667H18.8175V18.6244C25.2139 18.3303 30.0202 17.0621 30.0202 15.5435C30.0202 14.0248 25.2139 12.7566 18.8175 12.461Z" fill="#15FAA3"/>
</svg>
