<svg width="53" height="54" viewBox="0 0 53 54" fill="none" xmlns="http://www.w3.org/2000/svg">
<path fill-rule="evenodd" clip-rule="evenodd" d="M31.1966 9.44127C31.9121 9.60327 32.5905 9.87327 33.2159 10.2513C33.9208 10.7373 34.5144 11.3313 35.2988 12.1413L37.6202 14.4637C38.4046 15.2737 38.9982 15.8677 39.4328 16.6237C39.8144 17.2177 40.0953 17.9196 40.2649 18.6756C40.461 19.4856 40.461 20.3497 40.461 21.4837V34.5513C40.461 35.9553 40.461 37.1436 40.3815 38.1156C40.302 39.0876 40.1324 40.0054 39.6978 40.8694C39.03 42.2194 37.9647 43.2993 36.6503 44.0013C35.8023 44.4333 34.9012 44.5957 33.9207 44.7037C32.9773 44.7577 31.8167 44.7575 30.4122 44.7575H22.5947C21.1902 44.7575 20.0294 44.7577 19.086 44.7037C18.1055 44.5957 17.2046 44.4333 16.3566 44.0013C15.0422 43.2993 13.9769 42.2194 13.3091 40.8694C12.8745 40.0054 12.7048 39.0876 12.6253 38.1156C12.5458 37.1436 12.5459 35.9553 12.5459 34.5513V19.4856C12.5459 18.0276 12.5458 16.8395 12.6253 15.8675C12.7048 14.8955 12.8745 13.9777 13.3091 13.1137C13.9769 11.7637 15.0422 10.6833 16.3566 9.98127C17.2046 9.54927 18.1055 9.38737 19.086 9.27938C20.0294 9.22538 21.1902 9.22559 22.5947 9.22559H28.4459C29.5536 9.22559 30.391 9.22527 31.1966 9.44127ZM36.1997 18.1356C35.993 17.8656 35.6592 17.4877 35.0285 16.8937L32.9562 14.7337C32.3255 14.1397 31.9863 13.7616 31.7372 13.5456V16.3537C31.7372 17.3257 32.5163 18.1356 33.4809 18.1356H36.1997ZM28.2497 12.7894H22.6635C21.1689 12.7894 20.1566 12.7897 19.3722 12.8437C18.6037 12.8977 18.2116 13.0055 17.9413 13.1675C17.2841 13.4915 16.7488 14.0317 16.4149 14.7337C16.2771 15.0037 16.1658 15.3813 16.1022 16.1913C16.0386 17.0013 16.0332 18.0274 16.0332 19.5394V34.4437C16.0332 36.0097 16.0386 37.0356 16.1022 37.8456C16.1658 38.6016 16.2771 38.9797 16.4149 39.3037C16.7488 39.9517 17.2841 40.4916 17.9413 40.8156C18.2116 40.9776 18.6037 41.0854 19.3722 41.1394C20.1566 41.1934 21.1689 41.1937 22.6635 41.1937H30.338C31.8379 41.1937 32.8502 41.1934 33.6346 41.1394C34.3978 41.0854 34.7953 40.9776 35.0656 40.8156C35.7228 40.4916 36.2527 39.9517 36.5919 39.3037C36.7297 38.9797 36.8411 38.6016 36.9047 37.8456C36.9683 37.0356 36.9682 36.0097 36.9682 34.4437V21.6456H33.4809C30.5924 21.6456 28.2497 19.2697 28.2497 16.3537V12.7894Z" fill="#15FAA3"/>
</svg>
