<svg width="32" height="32" viewBox="0 0 32 32" fill="none" xmlns="http://www.w3.org/2000/svg">
<path fill-rule="evenodd" clip-rule="evenodd" d="M27.4133 10.8308V21.1699C27.4133 24.6163 24.6196 27.4099 21.17 27.4099H10.8308C7.38442 27.4099 4.59082 24.6163 4.59082 21.1699V10.8308C4.59082 7.38442 7.38442 4.59082 10.8308 4.59082H21.17C24.6196 4.59082 27.4133 7.38442 27.4133 10.8308ZM24.5781 14.5714C24.7637 14.5714 24.9428 14.498 25.074 14.3668C25.2052 14.2356 25.2788 14.0595 25.2788 13.8739C25.2788 12.7891 25.2788 10.8308 25.2788 10.8308C25.2788 8.56202 23.4388 6.72176 21.17 6.72176H10.8308C8.56202 6.72176 6.72524 8.56202 6.72524 10.8308C6.72524 10.8308 6.72524 12.7891 6.72524 13.8739C6.72524 14.0595 6.79884 14.2356 6.93004 14.3668C7.06124 14.498 7.23725 14.5714 7.42285 14.5714C8.98125 14.5714 12.6004 14.5714 12.6004 14.5714C13.0068 14.5714 13.378 14.8051 13.5572 15.1699L15.0452 18.2196L18.5781 10.8693C18.7509 10.5077 19.1124 10.2739 19.5156 10.2643C19.9156 10.2547 20.2868 10.4723 20.4788 10.8243L22.4981 14.5714C22.4981 14.5714 23.7557 14.5714 24.5781 14.5714ZM7.42285 16.7027C7.23725 16.7027 7.06124 16.7762 6.93004 16.9074C6.79884 17.0386 6.72524 17.218 6.72524 17.4036C6.72524 18.6612 6.72524 21.1699 6.72524 21.1699C6.72524 23.4387 8.56202 25.2786 10.8308 25.2786H21.17C23.4388 25.2786 25.2788 23.4387 25.2788 21.1699C25.2788 21.1699 25.2788 18.6612 25.2788 17.4036C25.2788 17.0196 24.9653 16.7058 24.5781 16.7058C23.5797 16.7058 21.8613 16.7058 21.8613 16.7058C21.4677 16.7058 21.1092 16.4914 20.9236 16.1458L19.5956 13.6818L16.0148 21.1315C15.8388 21.4995 15.4677 21.7333 15.0581 21.7365C14.6485 21.7365 14.274 21.5028 14.0948 21.138L11.9316 16.7058C11.9316 16.7058 8.84365 16.7059 7.42285 16.7027Z" fill="#15FAA3"/>
</svg>
