<svg width="32" height="32" viewBox="0 0 32 32" fill="none" xmlns="http://www.w3.org/2000/svg">
<path fill-rule="evenodd" clip-rule="evenodd" d="M17.0671 18.3328L19.1153 16.2853C19.5313 15.8693 20.203 15.8693 20.619 16.2853C21.035 16.7013 21.035 17.373 20.619 17.789L16.7471 21.6609C16.5551 21.8529 16.267 21.9809 15.979 21.9809C15.691 21.9809 15.4354 21.8529 15.2434 21.6609L11.339 17.6928C10.955 17.2768 10.9549 16.573 11.3709 16.189C11.7869 15.773 12.4593 15.773 12.8753 16.189C12.8753 16.189 14.0274 17.3729 14.9234 18.3009V7.83715C14.9234 7.22915 15.4029 6.74902 16.0109 6.74902C16.5869 6.74902 17.0671 7.22915 17.0671 7.83715V18.3328ZM5.4834 14.6209C5.4834 14.0129 5.96302 13.5653 6.53902 13.5653C7.14702 13.5653 7.62715 14.0129 7.62715 14.6209V21.6609C7.62715 22.7809 8.5234 23.6771 9.6434 23.6771H22.379C23.467 23.6771 24.3953 22.7809 24.3953 21.6609V14.6209C24.3953 14.0129 24.8429 13.5653 25.4509 13.5653C26.0269 13.5653 26.5071 14.0129 26.5071 14.6209V21.6609C26.5071 23.9649 24.651 25.8209 22.379 25.8209H9.6434C7.3394 25.8209 5.4834 23.9649 5.4834 21.6609V14.6209Z" fill="#15FAA3"/>
</svg>
