<svg width="32" height="32" viewBox="0 0 32 32" fill="none" xmlns="http://www.w3.org/2000/svg">
<path fill-rule="evenodd" clip-rule="evenodd" d="M7.92077 14.4006C8.66849 10.864 11.8011 8.2168 15.5397 8.2168C18.3689 8.2168 20.8544 9.75241 22.2286 12.0158C25.4216 12.0562 28.0082 14.6832 28.0082 17.8964C28.0082 21.15 25.3812 23.7774 22.1276 23.7774H8.66872C6.06181 23.7774 3.95996 21.6554 3.95996 19.0485C3.95996 16.7043 5.67761 14.7441 7.92077 14.4006ZM22.1276 21.635C24.2091 21.635 25.8863 19.9577 25.8863 17.8964C25.8863 15.8351 24.2091 14.1377 22.1276 14.1377C21.9861 14.1377 21.8447 14.1581 21.7234 14.1783C21.2586 14.2188 20.8341 13.9763 20.6321 13.5721C19.7227 11.6725 17.7828 10.3588 15.5397 10.3588C12.5892 10.3588 10.164 12.6223 9.9215 15.4919C9.86087 16.0779 9.37587 16.5021 8.81003 16.4617C8.76961 16.4617 8.70914 16.4617 8.66872 16.4617C7.25412 16.4617 6.08186 17.6339 6.08186 19.0485C6.08186 20.4833 7.25412 21.635 8.66872 21.635H22.1276Z" fill="#15FAA3"/>
</svg>
