<svg width="32" height="32" viewBox="0 0 32 32" fill="none" xmlns="http://www.w3.org/2000/svg">
<path fill-rule="evenodd" clip-rule="evenodd" d="M9.94989 9.52937C7.00589 12.3134 6.20602 16.8564 8.31802 20.5044C9.53401 22.6484 11.5181 24.0888 13.7261 24.6968C14.4941 24.8888 15.2619 24.9843 16.0299 24.9843C16.6379 24.9843 17.118 25.4651 17.118 26.0731C17.118 26.6491 16.6379 27.1293 16.0299 27.1293C15.0699 27.1293 14.1104 27.0003 13.1824 26.7443C10.4304 26.0083 7.99839 24.2166 6.46239 21.5606C3.9664 17.2086 4.76627 11.8329 8.09427 8.37687L6.39802 8.31312C5.82202 8.31312 5.34227 7.80037 5.37427 7.22437C5.37427 6.64837 5.88639 6.16862 6.46239 6.20062L11.1024 6.32937C11.4864 6.32937 11.806 6.52112 11.998 6.87312C12.094 7.03312 12.158 7.22487 12.158 7.41687L11.998 12.0569C11.998 12.6649 11.5179 13.1131 10.9099 13.1131C10.3339 13.0811 9.85414 12.6011 9.88614 11.9931L9.94989 9.52937ZM22.1742 22.5844C25.1182 19.8004 25.9181 15.2894 23.8061 11.6094C22.5901 9.46537 20.606 8.02537 18.398 7.44937C17.63 7.22537 16.8623 7.12937 16.0943 7.12937C15.4863 7.12937 15.0061 6.64862 15.0061 6.04062C15.0061 5.46462 15.4863 4.98438 16.0943 4.98438C17.0543 4.98438 18.0144 5.11337 18.9424 5.36937C21.6944 6.10537 24.1264 7.89712 25.6624 10.5531C28.1584 14.9051 27.3579 20.2809 24.0299 23.7369L25.7261 23.8006C26.3021 23.8006 26.7819 24.3133 26.7499 24.8893C26.7499 25.4973 26.2384 25.9443 25.6624 25.9443L21.0224 25.7843C20.6384 25.7843 20.2861 25.5931 20.1261 25.2731C20.0301 25.0811 19.9661 24.8888 19.9661 24.6968L20.0943 20.0569C20.1263 19.4489 20.6063 19.0006 21.2142 19.0006C21.7902 19.0326 22.27 19.5126 22.238 20.1206L22.1742 22.5844Z" fill="#15FAA3"/>
</svg>
