<svg width="45" height="39" viewBox="0 0 45 39" fill="none" xmlns="http://www.w3.org/2000/svg">
<path fill-rule="evenodd" clip-rule="evenodd" d="M29.2254 3.55842L41.6533 15.9181C45.2396 19.4848 45.2396 25.2677 41.6532 28.8344C39.931 30.5472 37.5949 31.5095 35.1593 31.5095C32.7236 31.5095 30.3877 30.5472 28.6653 28.8345L22.1715 22.3762L15.6777 28.8345C13.9554 30.5472 11.6194 31.5095 9.18377 31.5095C6.74811 31.5095 4.41207 30.5472 2.68984 28.8344C-0.896587 25.2677 -0.896584 19.4848 2.68975 15.9181L16.2381 2.44425C19.515 -0.814751 24.828 -0.814751 28.1049 2.44425L28.1054 2.44472L8.62366 21.8195C8.3145 22.127 8.31459 22.6256 8.62375 22.933C8.77228 23.0808 8.97375 23.1638 9.18377 23.1638C9.39377 23.1638 9.59525 23.0807 9.74369 22.9331L22.1715 10.5735L34.5993 22.9331C34.7478 23.0807 34.9493 23.1638 35.1593 23.1638C35.3693 23.1638 35.5707 23.0808 35.7193 22.933C36.0284 22.6256 36.0285 22.127 35.7194 21.8195L23.2914 9.45974L29.2254 3.55842ZM11.9375 34.784L22.1715 24.6059L32.4056 34.784C29.6914 37.4834 26.0099 39 22.1715 39C18.3331 39 14.6516 37.4834 11.9375 34.784Z" fill="#1AFFA8"/>
</svg>
