<svg width="32" height="32" viewBox="0 0 32 32" fill="none" xmlns="http://www.w3.org/2000/svg">
<path fill-rule="evenodd" clip-rule="evenodd" d="M14.3506 15.9689L8.58061 10.1989C8.17332 9.79162 8.17332 9.11244 8.58061 8.70515C9.01054 8.27523 9.69006 8.27488 10.0974 8.68217L15.8673 14.4522L21.6143 8.70515C22.0216 8.29786 22.7004 8.29742 23.1077 8.70471C23.515 9.112 23.515 9.79118 23.1077 10.1985L17.3607 15.9455L23.1306 21.7155C23.5379 22.1228 23.5371 22.8018 23.1072 23.2318C22.6999 23.6391 22.0212 23.6395 21.6139 23.2322L15.8439 17.4622L10.0969 23.2092C9.66699 23.6391 8.98835 23.6386 8.58106 23.2313C8.17376 22.824 8.17368 22.1458 8.6036 21.7159L14.3506 15.9689Z" fill="#15FAA3"/>
</svg>
