<svg width="32" height="32" viewBox="0 0 32 32" fill="none" xmlns="http://www.w3.org/2000/svg">
<path fill-rule="evenodd" clip-rule="evenodd" d="M27.4112 10.8328V21.1684C27.4112 24.6244 24.6272 27.4084 21.1712 27.4084H10.835C7.37897 27.4084 4.59497 24.6244 4.59497 21.1684V10.8328C4.59497 7.37677 7.37897 4.59277 10.835 4.59277H21.1712C24.6272 4.59277 27.4112 7.37677 27.4112 10.8328ZM25.2668 10.8328C25.2668 8.56077 23.4432 6.73652 21.1712 6.73652H10.835C8.56297 6.73652 6.73934 8.56077 6.73934 10.8328V21.1684C6.73934 23.4404 8.56297 25.2646 10.835 25.2646H21.1712C23.4432 25.2646 25.2668 23.4404 25.2668 21.1684V10.8328ZM11.155 21.9046C10.579 21.9046 10.0993 21.4244 10.0993 20.8484C10.0993 20.2404 10.579 19.7609 11.155 19.7609H20.8512C21.4272 19.7609 21.9068 20.2404 21.9068 20.8484C21.9068 21.4244 21.4272 21.9046 20.8512 21.9046H11.155ZM11.155 17.0728C10.579 17.0728 10.0993 16.5925 10.0993 16.0165C10.0993 15.4085 10.579 14.9284 11.155 14.9284H20.8512C21.4272 14.9284 21.9068 15.4085 21.9068 16.0165C21.9068 16.5925 21.4272 17.0728 20.8512 17.0728H11.155ZM11.155 12.2409C10.579 12.2409 10.0993 11.7608 10.0993 11.1528C10.0993 10.5768 10.579 10.0965 11.155 10.0965H20.8512C21.4272 10.0965 21.9068 10.5768 21.9068 11.1528C21.9068 11.7608 21.4272 12.2409 20.8512 12.2409H11.155Z" fill="#15FAA3"/>
</svg>
